Coordinates
version=1
nRows=6
nColumns=107
inDegrees=yes

Units are S.I. units (second, meters, Newtons, ...)
If the header above contains a line with 'inDegrees', this indicates whether rotational values are in degrees (yes) or radians (no).

endheader
time	sternoclavicular_r2	sternoclavicular_r3	unrotscap_r3	unrotscap_r2	acromioclavicular_r2	acromioclavicular_r3	acromioclavicular_r1	unrothum_r1	unrothum_r3	unrothum_r2	elv_angle	shoulder_elv	shoulder1_r2	shoulder_rot	elbow_flexion	pro_sup	deviation	flexion	proximal_distal_r1	proximal_distal_r3	cmc_flexion	cmc_abduction	mp_flexion	ip_flexion	mcp2_flexion	mcp2_abduction	pm2_flexion	md2_flexion	mcp3_flexion	mcp3_abduction	pm3_flexion	md3_flexion	mcp4_flexion	mcp4_abduction	pm4_flexion	md4_flexion	mcp5_flexion	mcp5_abduction	pm5_flexion	md5_flexion	bicpt_tx	bicpt_ty	bicpt_tz	bicpt2_tx	bicpt2_ty	bicpt2_tz	ptpt_tx	ptpt_ty	ptpt_tz	FCUpt_tx	FCUpt_ty	FCUpt_tz	EDCpt_tx	EDCpt_ty	EDCpt_tz	APLpt_tx	APLpt_ty	APLpt_tz	FPLpt_tx	FPLpt_ty	FPLpt_tz	FPLpt2_tx	FPLpt2_ty	FPLpt2_tz	PEC1pt2_tx	PEC1pt2_ty	PEC1pt2_tz	PEC1pt3_tx	PEC1pt3_ty	PEC1pt3_tz	PEC2pt2_tx	PEC2pt2_ty	PEC2pt2_tz	PEC2pt3_tx	PEC2pt3_ty	PEC2pt3_tz	PEC3pt2_tx	PEC3pt2_ty	PEC3pt2_tz	PEC3pt3_tx	PEC3pt3_ty	PEC3pt3_tz	DELT2pt2a_tx	DELT2pt2a_ty	DELT2pt2a_tz	DELT2pt2_tx	DELT2pt2_ty	DELT2pt2_tz	LAT1pt2_tx	LAT1pt2_ty	LAT1pt2_tz	LAT1pt3_tx	LAT1pt3_ty	LAT1pt3_tz	LAT2pt2_tx	LAT2pt2_ty	LAT2pt2_tz	LAT2pt3_tx	LAT2pt3_ty	LAT2pt3_tz	LAT3pt2_tx	LAT3pt2_ty	LAT3pt2_tz	LAT3pt3_tx	LAT3pt3_ty	LAT3pt3_tz
      0.60000000	     -0.32049701	      0.13574741	     -0.13574741	      0.32049701	     -0.06489412	      0.52445149	      0.23573733	     -0.23573733	     -0.52445149	      0.06489412	     99.34779953	     75.88051510	     -1.73394621	    -23.90456354	     28.60027822	     13.31630163	     -0.01664146	     -0.97395297	     -0.02281147	     -0.48697648	    -11.76545163	      5.74518466	    -25.02539714	     -4.28659108	      7.14837989	     13.13222052	     31.02373307	     26.55545245	     57.10398087	      5.63067751	     83.82703011	     60.17032199	     57.33856228	     -7.30120757	     86.05445896	     38.62544316	      4.64409853	    -13.08531836	    -15.04949367	      4.94463568	      0.00084601	     -0.03087803	     -0.00482800	      0.01571009	     -0.01796941	     -0.00981940	      0.00656608	     -0.06553622	     -0.00112270	      0.00520364	     -0.18394906	      0.00007111	     -0.00159795	      0.00040466	      0.00014503	      0.00020210	      0.00008084	      0.00040419	      0.00025868	      0.00077605	      0.00043653	     -0.00188032	      0.00037104	      0.00044525	      0.00248720	      0.00872627	      0.00607045	     -0.00813608	      0.01964464	     -0.01863290	      0.00248720	      0.00872627	      0.00607045	      0.00054803	      0.01821134	     -0.00956938	      0.00393708	      0.00485257	      0.01594103	      0.00000000	      0.00769994	      0.00000000	     -0.00712434	     -0.03292374	     -0.00634850	      0.01592744	     -0.00055478	     -0.00477043	     -0.00088527	      0.01483887	     -0.00607045	      0.00244504	      0.02141519	     -0.01770547	     -0.00594398	      0.01285754	     -0.00543811	     -0.01239383	      0.02714838	     -0.03039439	     -0.02327004	      0.01437515	     -0.00729297	     -0.01542905	      0.03136397	     -0.03798245
      0.63333333	     -0.31846625	      0.13488727	     -0.13488727	      0.31846625	     -0.06448294	      0.52112841	      0.23424364	     -0.23424364	     -0.52112841	      0.06448294	     99.84927520	     75.39971468	     -1.74269861	    -26.23856319	     28.67719966	     15.84286955	     -0.00086035	     -0.98781292	     -0.00116785	     -0.49390646	    -11.87051835	      6.25883162	    -25.49922633	     -4.94969061	      9.80247158	     13.17199489	     34.28027019	     29.74675800	     57.44834223	      5.37090389	     84.09445908	     61.24820837	     57.01833919	     -7.64568443	     86.22936580	     38.46834002	      4.99922560	    -13.01691547	    -14.40528204	      4.97731713	      0.00084855	     -0.03088685	     -0.00482942	      0.01586175	     -0.01799030	     -0.00963973	      0.00637939	     -0.06565694	     -0.00132623	      0.00543818	     -0.18391474	      0.00000480	     -0.00190114	      0.00048761	      0.00016170	      0.00019351	      0.00007740	      0.00038702	      0.00024769	      0.00074307	      0.00041798	     -0.00191631	      0.00037505	      0.00045006	      0.00247144	      0.00867097	      0.00603198	     -0.00808453	      0.01952016	     -0.01851483	      0.00247144	      0.00867097	      0.00603198	      0.00054455	      0.01809595	     -0.00950875	      0.00391879	      0.00482182	      0.01589593	      0.00000000	      0.00760201	      0.00000000	     -0.00707920	     -0.03271513	     -0.00626719	      0.01711597	     -0.00063083	     -0.00575652	     -0.00087966	      0.01474485	     -0.00603198	      0.00242955	      0.02127949	     -0.01759328	     -0.00590632	      0.01277607	     -0.00540365	     -0.01231530	      0.02697637	     -0.03020180	     -0.02312260	      0.01428407	     -0.00724676	     -0.01533129	      0.03116524	     -0.03774178
      0.66666667	     -0.31819424	      0.13477206	     -0.13477206	      0.31819424	     -0.06442786	      0.52068330	      0.23404356	     -0.23404356	     -0.52068330	      0.06442786	     99.84449450	     75.33531357	     -1.74261517	    -26.50459255	     28.75112790	     16.35504680	      0.01741706	     -1.00359208	      0.02338918	     -0.50179604	    -11.64449516	      6.00553558	    -25.37294023	     -4.92916484	     10.98316386	     13.01022254	     35.03979344	     30.02900796	     56.97156389	      5.44569912	     83.83028247	     61.16903760	     56.03094444	     -7.63835539	     85.73836495	     38.31923012	      4.49477190	    -13.02517776	    -14.57235248	      4.96672792	      0.00085100	     -0.03089532	     -0.00483079	      0.01589071	     -0.01801038	     -0.00960222	      0.00634155	     -0.06568141	     -0.00136749	      0.00548597	     -0.18390756	     -0.00000805	     -0.00196260	      0.00050467	      0.00016466	      0.00018334	      0.00007333	      0.00036667	      0.00023467	      0.00070401	      0.00039601	     -0.00183941	      0.00036644	      0.00043973	      0.00246933	      0.00866357	      0.00602683	     -0.00807763	      0.01950349	     -0.01849902	      0.00246933	      0.00866357	      0.00602683	      0.00054409	      0.01808049	     -0.00950063	      0.00391633	      0.00481770	      0.01588985	      0.00000000	      0.00758894	      0.00000000	     -0.00707315	     -0.03268718	     -0.00625634	      0.01724680	     -0.00063962	     -0.00587370	     -0.00087891	      0.01473225	     -0.00602683	      0.00242747	      0.02126132	     -0.01757825	     -0.00590127	      0.01276516	     -0.00539904	     -0.01230478	      0.02695332	     -0.03017600	     -0.02310285	      0.01427187	     -0.00724057	     -0.01531819	      0.03113862	     -0.03770954
      0.70000000	     -0.31777947	      0.13459638	     -0.13459638	      0.31777947	     -0.06434388	      0.52000459	      0.23373848	     -0.23373848	     -0.52000459	      0.06434388	     99.87932143	     75.23711362	     -1.74322301	    -26.92920575	     28.87870595	     17.00988386	      0.04498044	     -1.02748725	      0.05938878	     -0.51374362	    -11.18163526	      5.83777975	    -24.99200709	     -4.83184338	     12.32519338	     12.94536679	     36.09100234	     30.42506419	     56.04509321	      5.43167972	     83.13211113	     60.93321181	     54.41167000	     -7.67669240	     84.85914411	     38.06066687	      3.98521615	    -13.02922281	    -14.64032828	      5.01063976	      0.00085522	     -0.03090994	     -0.00483314	      0.01592687	     -0.01804504	     -0.00955372	      0.00629316	     -0.06571269	     -0.00142024	      0.00554719	     -0.18389827	     -0.00002420	     -0.00204118	      0.00052660	      0.00016824	      0.00016714	      0.00006686	      0.00033428	      0.00021394	      0.00064182	      0.00036102	     -0.00168811	      0.00034900	      0.00041880	      0.00246611	      0.00865228	      0.00601897	     -0.00806710	      0.01947807	     -0.01847491	      0.00246611	      0.00865228	      0.00601897	      0.00054338	      0.01805692	     -0.00948824	      0.00391258	      0.00481142	      0.01588055	      0.00000000	      0.00756903	      0.00000000	     -0.00706393	     -0.03264458	     -0.00623981	      0.01745367	     -0.00065368	     -0.00606267	     -0.00087777	      0.01471305	     -0.00601897	      0.00242431	      0.02123360	     -0.01755534	     -0.00589358	      0.01274852	     -0.00539200	     -0.01228874	      0.02691819	     -0.03013667	     -0.02307273	      0.01425327	     -0.00723113	     -0.01529823	      0.03109803	     -0.03766039
      0.73333333	     -0.31661710	      0.13410406	     -0.13410406	      0.31661710	     -0.06410852	      0.51810252	      0.23288352	     -0.23288352	     -0.51810252	      0.06410852	    100.15528310	     74.96191255	     -1.74803945	    -28.44484003	     29.10911899	     19.08883810	      0.09476943	     -1.03776396	      0.12126425	     -0.51888198	    -10.80099199	      6.68815716	    -22.95727556	     -4.15210371	     14.08835236	     13.11418957	     38.57020420	     32.09779494	     55.52626020	      5.47185917	     80.53220380	     57.70284688	     53.26505665	     -7.76959435	     80.31837401	     35.92438515	      3.90492892	    -13.16204324	    -11.94423891	      5.04859080	      0.00086284	     -0.03093635	     -0.00483740	      0.01603515	     -0.01810763	     -0.00939578	      0.00613955	     -0.06581202	     -0.00158771	      0.00574241	     -0.18386798	     -0.00007332	     -0.00229066	      0.00059708	      0.00017804	      0.00015988	      0.00006395	      0.00031976	      0.00020465	      0.00061394	      0.00034534	     -0.00156982	      0.00033484	      0.00040180	      0.00245709	      0.00862063	      0.00599696	     -0.00803759	      0.01940682	     -0.01840733	      0.00245709	      0.00862063	      0.00599696	      0.00054139	      0.01799087	     -0.00945354	      0.00390206	      0.00479382	      0.01585438	      0.00000000	      0.00751339	      0.00000000	     -0.00703810	     -0.03252517	     -0.00619360	      0.01817244	     -0.00070437	     -0.00675651	     -0.00087456	      0.01465923	     -0.00599696	      0.00241544	      0.02115594	     -0.01749113	     -0.00587202	      0.01270189	     -0.00537227	     -0.01224379	      0.02681973	     -0.03002644	     -0.02298834	      0.01420113	     -0.00720468	     -0.01524227	      0.03098428	     -0.03752263
      0.76666667	     -0.31590657	      0.13380311	     -0.13380311	      0.31590657	     -0.06396466	      0.51693984	      0.23236090	     -0.23236090	     -0.51693984	      0.06396466	    100.21833627	     74.79368943	     -1.74913994	    -29.15865378	     29.34032477	     20.27652005	      0.14057748	     -1.06169279	      0.17460872	     -0.53084640	     -9.62470072	      6.38859309	    -21.89470149	     -3.80741005	     14.79118839	     12.93911169	     39.07761667	     32.37348952	     53.02407545	      5.44362707	     78.60690011	     56.61793630	     49.92642208	     -7.40377060	     77.55516748	     35.01637176	      3.14107461	    -13.25593117	    -11.54037744	      5.09711312	      0.00087049	     -0.03096285	     -0.00484167	      0.01609257	     -0.01817044	     -0.00930282	      0.00605179	     -0.06586876	     -0.00168338	      0.00585454	     -0.18385013	     -0.00009993	     -0.00243318	      0.00063795	      0.00018260	      0.00014229	      0.00005692	      0.00028458	      0.00018213	      0.00054640	      0.00030735	     -0.00123794	      0.00029208	      0.00035050	      0.00245157	      0.00860128	      0.00598350	     -0.00801955	      0.01936327	     -0.01836602	      0.00245157	      0.00860128	      0.00598350	      0.00054018	      0.01795050	     -0.00943232	      0.00389561	      0.00478306	      0.01583829	      0.00000000	      0.00747949	      0.00000000	     -0.00702230	     -0.03245218	     -0.00616544	      0.01850033	     -0.00072848	     -0.00709347	     -0.00087259	      0.01462633	     -0.00598350	      0.00241002	      0.02110846	     -0.01745188	     -0.00585884	      0.01267339	     -0.00536022	     -0.01221631	      0.02675954	     -0.02995905	     -0.02293675	      0.01416926	     -0.00718851	     -0.01520806	      0.03091475	     -0.03743843
